<svg width="140" height="30" viewBox="0 0 140 30" fill="none" xmlns="http://www.w3.org/2000/svg">
    <path
        d="M16.7688 20.6582C16.7688 23.6039 15.8857 25.8968 14.1247 27.5589C12.3636 29.1936 9.91169 29.9999 6.76883 29.9999C5.44935 29.9999 4.20779 29.8518 3.03377 29.5172C1.85455 29.1771 0.846753 28.7163 0 28.091V21.1189C0.997402 21.8266 2.15584 22.4025 3.45455 22.8853C4.75325 23.357 5.93247 23.6039 6.98182 23.6039C7.87013 23.6039 8.54026 23.4009 8.9974 22.995C9.44935 22.5891 9.67792 21.9857 9.67792 21.2396C9.67792 20.894 9.60519 20.543 9.46493 20.2303C9.31429 19.9067 9.11169 19.594 8.85195 19.2868C8.58701 18.9632 7.88052 18.2775 6.73247 17.2243C5.32987 15.9681 4.31169 14.69 3.67792 13.3954C3.04416 12.0899 2.72727 10.6637 2.72727 9.10579C2.72727 7.36141 3.11688 5.79257 3.9013 4.40474C4.68571 3.01692 5.79221 1.94726 7.22597 1.17381C8.65454 0.405841 10.2545 0.0273438 12.0312 0.0273438C14.8883 0.0273438 17.4597 0.740454 19.7455 2.17216L17.3143 8.09646C15.2675 6.91709 13.5273 6.34111 12.0935 6.34111C11.3299 6.34111 10.7377 6.52762 10.3221 6.90063C9.91688 7.26815 9.70909 7.81122 9.70909 8.52433C9.70909 9.1771 9.91169 9.78598 10.3117 10.351C10.7117 10.9215 11.4753 11.673 12.5974 12.6165C14.0052 13.7739 15.0545 15.0027 15.7351 16.2698C16.426 17.5424 16.7688 18.9961 16.7688 20.6582Z"
        fill="#F25822"
    />
    <path
        d="M29.1532 29.6159H22.135L26.3844 6.88414H20.696L21.9324 0.438721H40.3844L39.1168 6.88414H33.4077L29.1532 29.6159Z"
        fill="#F25822"
    />
    <path d="M37.2676 29.616L42.8104 0.444336H49.9377L44.3897 29.616H37.2676Z" fill="#F25822" />
    <path
        d="M64.1039 6.4893C62.8052 6.4893 61.6363 7.00494 60.5974 8.0362C59.5584 9.07296 58.7428 10.5047 58.1454 12.3258C57.5532 14.1525 57.2571 16.1218 57.2571 18.2556C57.2571 20.0439 57.5896 21.3714 58.2597 22.26C58.9299 23.1157 59.8909 23.5546 61.148 23.5546C62.1299 23.5546 63.1532 23.4394 64.161 23.1706C65.1844 22.8799 66.3792 22.4081 67.7454 21.7663V28.2282C65.3143 29.4295 62.6753 29.9945 59.8441 29.9945C56.7376 29.9945 54.3273 29.0071 52.6597 27.0598C50.9818 25.0905 50.1506 22.2984 50.1506 18.678C50.1506 15.1289 50.7532 11.887 51.974 8.93582C53.1844 5.98464 54.8415 3.76851 56.9247 2.25453C59.013 0.751509 61.4026 0 64.0987 0C67.2675 0 70.1454 0.872189 72.7325 2.62754L70.0779 8.69995C68.9662 7.97038 67.9428 7.4328 67.0078 7.05431C66.0727 6.67032 65.1117 6.4893 64.1039 6.4893Z"
        fill="#F25822"
    />
    <path
        d="M92.4207 9.18268C92.4207 12.5343 91.4026 15.1783 89.3454 17.0708C87.2883 18.9852 84.4779 19.9287 80.9142 19.9287H79.3714L77.5688 29.616H70.5454L76.0831 0.444336H82.7792C85.8857 0.444336 88.2701 1.20133 89.9117 2.70983C91.6 4.21833 92.4207 6.37961 92.4207 9.18268ZM80.6337 13.5491H81.7714C82.8571 13.5491 83.7402 13.1706 84.4104 12.3807C85.0805 11.6018 85.4129 10.6254 85.4129 9.41855C85.4129 8.63413 85.1896 8.0033 84.7636 7.52058C84.3376 7.04335 83.7506 6.80199 82.987 6.80199H81.922L80.6337 13.5491Z"
        fill="#F25822"
    />
    <path
        d="M106.81 24.1525H98.7635L96.5142 29.616H89.2415L102.582 0.444336H111.61L113.813 29.616H106.987L106.81 24.1525ZM101.33 17.9265H106.587L106.275 9.46792L106.244 7.75097C106.244 6.75262 106.265 5.88043 106.322 5.13441C106.031 6.27538 105.673 7.37248 105.221 8.44763L101.33 17.9265Z"
        fill="#F25822"
    />
    <path
        d="M126.577 11.2506L132.177 0.438721H140L129.023 18.2829L126.847 29.6159H119.813L121.974 18.2939L117.725 0.449692H124.961L126.577 11.2506Z"
        fill="#F25822"
    />
</svg>
