<svg width="48" height="29" viewBox="0 0 48 29" fill="none" xmlns="http://www.w3.org/2000/svg">
    <path d="M30.101 3.4679H17.4817V25.5322H30.101V3.4679Z" fill="#FF5F00" />
    <path
        d="M18.2828 14.5C18.2808 12.3751 18.7757 10.2775 19.7301 8.36618C20.6844 6.45484 22.0732 4.7798 23.7912 3.46787C21.6637 1.84077 19.1085 0.8289 16.4179 0.547915C13.7272 0.266931 11.0096 0.728158 8.57564 1.8789C6.14167 3.02964 4.08954 4.82347 2.65384 7.05533C1.21814 9.28719 0.456787 11.867 0.456787 14.5C0.456787 17.133 1.21814 19.7128 2.65384 21.9447C4.08954 24.1765 6.14167 25.9704 8.57564 27.1211C11.0096 28.2719 13.7272 28.7331 16.4179 28.4521C19.1085 28.1711 21.6637 27.1592 23.7912 25.5321C22.0732 24.2202 20.6844 22.5452 19.7301 20.6338C18.7758 18.7225 18.2809 16.625 18.2828 14.5Z"
        fill="#EB001B"
    />
    <path
        d="M47.125 14.5C47.1251 17.1329 46.3638 19.7128 44.9282 21.9446C43.4925 24.1765 41.4405 25.9703 39.0066 27.1211C36.5726 28.2718 33.8551 28.7331 31.1644 28.4521C28.4738 28.1711 25.9187 27.1592 23.7913 25.5321C25.5078 24.2189 26.8954 22.5436 27.8496 20.6325C28.8038 18.7215 29.2996 16.6246 29.2996 14.5C29.2996 12.3754 28.8038 10.2785 27.8496 8.36747C26.8954 6.45643 25.5078 4.78112 23.7913 3.46787C25.9187 1.84076 28.4738 0.828893 31.1644 0.547912C33.8551 0.26693 36.5726 0.728178 39.0066 1.87893C41.4405 3.02969 43.4925 4.82351 44.9282 7.05537C46.3638 9.28723 47.1251 11.8671 47.125 14.5Z"
        fill="#F79E1B"
    />
    <path
        d="M45.749 23.1952V22.7434H45.9362V22.6514H45.4595V22.7434H45.6468V23.1952H45.749ZM46.6746 23.1952V22.6505H46.5285L46.3604 23.0251L46.1923 22.6505H46.046V23.1952H46.1492V22.7843L46.3069 23.1385H46.4139L46.5715 22.7834V23.1952H46.6746Z"
        fill="#F79E1B"
    />
</svg>
