<svg width="64" height="18" viewBox="0 0 64 18" fill="none" xmlns="http://www.w3.org/2000/svg">
    <path d="M60.3763 1.33603L63.9854 8.99802L56.3984 16.6637L60.3763 1.33603Z" fill="#008C44" />
    <path d="M57.8771 1.33603L61.4809 8.99802L53.8989 16.6637L57.8771 1.33603Z" fill="#F47920" />
    <path
        d="M0.0144043 13.8759L3.6128 0.0150196H9.36571C11.1636 0.0150196 12.3647 0.319335 12.9757 0.946442C13.5824 1.56851 13.6992 2.58391 13.3336 4.0111C13.1124 4.85183 12.7762 5.55754 12.3144 6.11512C11.8564 6.6737 11.2522 7.1154 10.5083 7.4402C11.1395 7.60244 11.541 7.92456 11.721 8.40757C11.9 8.89058 11.8793 9.59494 11.6619 10.5183L11.2243 12.4544L11.223 12.5068C11.0967 13.0489 11.1341 13.3391 11.3399 13.3626L11.2073 13.8759H7.3155C7.32869 13.5497 7.35288 13.2582 7.37864 13.0133C7.40692 12.7627 7.44179 12.5686 7.47635 12.4352L7.8392 11.051C8.02204 10.3312 8.03335 9.82905 7.86371 9.53985C7.69249 9.24292 7.30921 9.09681 6.70414 9.09681H5.06862L3.8214 13.8759H0.0144043ZM5.8779 5.97337H7.62966C8.24353 5.97337 8.69655 5.87966 8.97583 5.68585C9.25638 5.49036 9.46467 5.16018 9.58688 4.68255C9.71348 4.19685 9.68238 3.85827 9.5008 3.66581C9.31953 3.47032 8.88567 3.37526 8.20363 3.37526H6.5524L5.8779 5.97337Z"
        fill="#1B3281"
    />
    <path
        d="M24.0144 3.64751L21.3616 13.8757H18.138L18.5342 12.3773C17.9668 12.9732 17.3863 13.4256 16.801 13.7148C16.2204 14.009 15.6078 14.1538 14.9628 14.1538C14.4297 14.1538 13.972 14.0504 13.6034 13.8451C13.2305 13.6406 12.9528 13.3295 12.7659 12.9194C12.6 12.5603 12.5278 12.117 12.556 11.5873C12.5859 11.066 12.758 10.1866 13.0772 8.95524L14.452 3.64751H17.9781L16.6062 8.93038C16.4058 9.7036 16.358 10.2471 16.4557 10.543C16.5575 10.8416 16.8292 10.9958 17.2703 10.9958C17.7145 10.9958 18.0881 10.8238 18.3966 10.4728C18.7095 10.1248 18.9511 9.60586 19.1327 8.91527L20.4933 3.64751H24.0144Z"
        fill="#1B3281"
    />
    <path
        d="M22.7351 13.8759L26.3297 0.0150196H31.2746C32.3657 0.0150196 33.2102 0.0838766 33.8124 0.235027C34.4134 0.379796 34.8846 0.614919 35.2349 0.946442C35.6738 1.38008 35.9427 1.91683 36.0533 2.56073C36.1573 3.20463 36.0957 3.95467 35.868 4.83538C35.4652 6.38484 34.7593 7.57221 33.7533 8.40186C32.7443 9.22076 31.4958 9.63222 30.0057 9.63222H27.6916L26.5924 13.8759H22.7351ZM28.5678 6.24712H29.8113C30.6152 6.24712 31.1804 6.14098 31.5115 5.93609C31.8319 5.72851 32.0597 5.3597 32.1986 4.83538C32.3374 4.304 32.3016 3.9325 32.0918 3.72492C31.8897 3.51835 31.3736 3.41389 30.5477 3.41389H29.3067L28.5678 6.24712Z"
        fill="#1B3281"
    />
    <path
        d="M40.0161 13.8758L40.052 12.9044C39.4833 13.3596 38.9075 13.7035 38.3285 13.9185C37.752 14.1375 37.1381 14.2487 36.4806 14.2487C35.4819 14.2487 34.7854 13.9584 34.3826 13.3968C33.9849 12.8342 33.9195 12.0264 34.191 10.9959C34.4508 9.97882 34.9129 9.23013 35.5796 8.75148C36.2424 8.26713 37.3495 7.92049 38.9028 7.6988C39.0997 7.66454 39.3636 7.637 39.6941 7.59434C40.8424 7.45226 41.487 7.1251 41.6259 6.59137C41.6982 6.29915 41.6542 6.08351 41.4845 5.95117C41.3209 5.81379 41.0149 5.74628 40.5731 5.74628C40.2065 5.74628 39.9115 5.82756 39.6696 5.99651C39.428 6.16715 39.2477 6.41638 39.1255 6.76704H35.6876C35.998 5.61561 36.6323 4.74566 37.5845 4.1639C38.5333 3.57206 39.7843 3.28723 41.3337 3.28723C42.0623 3.28723 42.7148 3.36011 43.2916 3.51832C43.8693 3.6698 44.2916 3.88578 44.5655 4.1471C44.9026 4.47325 45.1021 4.84508 45.159 5.25621C45.2246 5.66633 45.1527 6.25414 44.9516 7.02333L43.4729 12.7257C43.4254 12.9125 43.4163 13.0791 43.4421 13.2306C43.4729 13.375 43.5319 13.4986 43.6362 13.587L43.5567 13.8758H40.0161ZM40.8732 9.30872C40.4987 9.46962 40.0121 9.62379 39.4073 9.79308C38.4576 10.0655 37.9232 10.4289 37.8076 10.8787C37.7275 11.1679 37.7598 11.3906 37.8921 11.5599C38.0225 11.7207 38.249 11.802 38.5682 11.802C39.1535 11.802 39.6234 11.6438 39.9737 11.3315C40.325 11.015 40.5876 10.5183 40.7714 9.83305C40.8034 9.68727 40.8317 9.58247 40.8499 9.50421L40.8732 9.30872Z"
        fill="#1B3281"
    />
    <path
        d="M43.5835 17.9061L44.3661 14.8787H45.3752C45.7122 14.8787 45.9774 14.8075 46.1653 14.6779C46.356 14.5432 46.4857 14.3161 46.5605 14.0105C46.5979 13.8758 46.6208 13.734 46.6365 13.5731C46.6466 13.4025 46.6466 13.2221 46.6365 13.0132L46.098 3.64758H49.6672L49.6119 9.85349L52.7278 3.64758H56.0469L50.5384 13.8264C49.9132 14.9641 49.4589 15.7457 49.1705 16.1722C48.8859 16.5935 48.6157 16.9209 48.3534 17.1426C48.0135 17.4493 47.634 17.6666 47.2243 17.7933C46.8137 17.9226 46.1885 17.9871 45.3481 17.9871C45.1062 17.9871 44.8279 17.982 44.5269 17.9652C44.2282 17.9528 43.9093 17.9337 43.5835 17.9061Z"
        fill="#1B3281"
    />
</svg>
