<svg width="52" height="16" viewBox="0 0 52 16" fill="none" xmlns="http://www.w3.org/2000/svg">
    <g clip-path="url(#clip0_1111_738)">
        <path d="M22.5332 15.7692H18.3208L20.9555 0.280762H25.1677L22.5332 15.7692Z" fill="#00579F" />
        <path
            d="M37.8034 0.659281C36.9726 0.345895 35.6547 -0.00012207 34.0253 -0.00012207C29.8654 -0.00012207 26.9361 2.10883 26.9181 5.12399C26.8836 7.34858 29.0154 8.58416 30.6099 9.32591C32.2396 10.0839 32.7936 10.5786 32.7936 11.2542C32.777 12.2918 31.4767 12.7701 30.2639 12.7701C28.5822 12.7701 27.681 12.5235 26.3116 11.9462L25.7569 11.6988L25.1675 15.1756C26.1554 15.6035 27.9756 15.9832 29.8654 15.9999C34.2853 15.9999 37.1628 13.9236 37.1969 10.7104C37.2137 8.94726 36.088 7.59626 33.6611 6.4923C32.1878 5.78362 31.2855 5.30576 31.2855 4.58066C31.3028 3.92148 32.0487 3.24631 33.7118 3.24631C35.0812 3.21324 36.0873 3.52618 36.8496 3.83935L37.2306 4.00382L37.8034 0.659281Z"
            fill="#00579F"
        />
        <path
            d="M43.402 10.2822C43.7489 9.3924 45.0838 5.94866 45.0838 5.94866C45.0662 5.98172 45.43 5.04244 45.638 4.46582L45.9324 5.80039C45.9324 5.80039 46.73 9.50782 46.9033 10.2822C46.2449 10.2822 44.234 10.2822 43.402 10.2822ZM48.6016 0.280762H45.3434C44.3386 0.280762 43.5752 0.560641 43.1417 1.56584L36.8848 15.769H41.3047C41.3047 15.769 42.0323 13.8573 42.1887 13.4456C42.6736 13.4456 46.9733 13.4456 47.5971 13.4456C47.718 13.9894 48.0997 15.769 48.0997 15.769H51.9999L48.6016 0.280762Z"
            fill="#00579F"
        />
        <path
            d="M14.8025 0.280762L10.6773 10.8424L10.2265 8.70036C9.46378 6.22875 7.07185 3.5434 4.40259 2.20816L8.18121 15.7528H12.6357L19.2568 0.280762H14.8025Z"
            fill="#00579F"
        />
        <path
            d="M6.84662 0.280762H0.0693343L0 0.59371C5.28671 1.87901 8.78799 4.97718 10.2265 8.70102L8.75321 1.58271C8.51065 0.593491 7.76524 0.313392 6.84662 0.280762Z"
            fill="#FAA61A"
        />
    </g>
    <defs>
        <clipPath id="clip0_1111_738">
            <rect width="52" height="16" fill="white" />
        </clipPath>
    </defs>
</svg>
