<svg width="40" height="40" viewBox="0 0 40 40" fill="none" xmlns="http://www.w3.org/2000/svg">
    <path d="M20.6935 0.209937C20.2736 -0.069979 19.7266 -0.069979 19.3067 0.209937L0.556722 12.7099C0.0984004 13.0155 -0.105891 13.585 0.0537321 14.1122C0.213355 14.6394 0.699263 15 1.2501 15H5.9376V32.5H3.7501C3.05974 32.5 2.5001 33.0596 2.5001 33.75C2.5001 34.4404 3.05974 35 3.7501 35H36.2501C36.9405 35 37.5001 34.4404 37.5001 33.75C37.5001 33.0596 36.9405 32.5 36.2501 32.5H34.0626V15H38.7501C39.3009 15 39.7868 14.6394 39.9465 14.1122C40.1061 13.585 39.9018 13.0155 39.4435 12.7099L20.6935 0.209937ZM30.9376 15V32.5H27.8126V15H30.9376ZM24.6876 15V32.5H21.5626V15H24.6876ZM18.4376 15V32.5H15.3126V15H18.4376ZM12.1876 15V32.5H9.0626V15H12.1876ZM20 10C18.6193 10 17.5 8.88071 17.5 7.5C17.5 6.11929 18.6193 5 20 5C21.3807 5 22.5 6.11929 22.5 7.5C22.5 8.88071 21.3807 10 20 10Z" fill="#2596A1"/>
    <path d="M1.2501 37.5C0.559741 37.5 9.71877e-05 38.0596 9.71877e-05 38.75C9.71877e-05 39.4404 0.559741 40 1.2501 40H38.7501C39.4405 40 40.0001 39.4404 40.0001 38.75C40.0001 38.0596 39.4405 37.5 38.7501 37.5H1.2501Z" fill="#2596A1"/>
</svg>
