<svg width="18" height="19" viewBox="0 0 18 19" fill="none" xmlns="http://www.w3.org/2000/svg">
    <path d="M13.2099 12.1369C14.0995 10.9257 14.625 9.43047 14.625 7.8125C14.625 3.77392 11.3511 0.5 7.3125 0.5C3.27392 0.5 0 3.77392 0 7.8125C0 11.8511 3.27392 15.125 7.3125 15.125C8.93091 15.125 10.4265 14.5992 11.6378 13.7092L11.6369 13.7099C11.6701 13.7549 11.707 13.798 11.7477 13.8387L16.0795 18.1705C16.5188 18.6098 17.2312 18.6098 17.6705 18.1705C18.1098 17.7312 18.1098 17.0188 17.6705 16.5795L13.3387 12.2477C13.298 12.207 13.2549 12.1701 13.2099 12.1369ZM13.5 7.8125C13.5 11.2298 10.7298 14 7.3125 14C3.89524 14 1.125 11.2298 1.125 7.8125C1.125 4.39524 3.89524 1.625 7.3125 1.625C10.7298 1.625 13.5 4.39524 13.5 7.8125Z" fill="#BABABA"/>
</svg>
