<svg width="24" height="25" viewBox="0 0 24 25" fill="none" xmlns="http://www.w3.org/2000/svg">
    <path
        d="M12.4161 0.625962C12.1642 0.458013 11.836 0.458013 11.584 0.625962L0.334033 8.12596C0.0590402 8.30929 -0.0635344 8.65102 0.0322393 8.96734C0.128013 9.28366 0.419558 9.5 0.750058 9.5H3.56256V20H2.25006C1.83584 20 1.50006 20.3358 1.50006 20.75C1.50006 21.1642 1.83584 21.5 2.25006 21.5H21.7501C22.1643 21.5 22.5001 21.1642 22.5001 20.75C22.5001 20.3358 22.1643 20 21.7501 20H20.4376V9.5H23.2501C23.5806 9.5 23.8721 9.28366 23.9679 8.96734C24.0637 8.65102 23.9411 8.30929 23.6661 8.12596L12.4161 0.625962ZM18.5626 9.5V20H16.6876V9.5H18.5626ZM14.8126 9.5V20H12.9376V9.5H14.8126ZM11.0626 9.5V20H9.18756V9.5H11.0626ZM7.31256 9.5V20H5.43756V9.5H7.31256ZM12 6.5C11.1716 6.5 10.5 5.82843 10.5 5C10.5 4.17157 11.1716 3.5 12 3.5C12.8284 3.5 13.5 4.17157 13.5 5C13.5 5.82843 12.8284 6.5 12 6.5Z"
        fill="gray"
    />
    <path
        d="M0.750058 23C0.335845 23 5.83126e-05 23.3358 5.83126e-05 23.75C5.83126e-05 24.1642 0.335845 24.5 0.750058 24.5H23.2501C23.6643 24.5 24.0001 24.1642 24.0001 23.75C24.0001 23.3358 23.6643 23 23.2501 23H0.750058Z"
        fill="gray"
    />
</svg>
