<svg width="40" height="40" viewBox="0 0 40 40" fill="none" xmlns="http://www.w3.org/2000/svg">
    <path
        d="M36.0312 10H6.25C5.55937 10 5 9.44063 5 8.75C5 8.05937 5.55937 7.5 6.25 7.5H36.25C36.9406 7.5 37.5 6.94063 37.5 6.25C37.5 4.17891 35.8211 2.5 33.75 2.5H5C2.23828 2.5 0 4.73828 0 7.5V32.5C0 35.2617 2.23828 37.5 5 37.5H36.0312C38.2203 37.5 40 35.818 40 33.75V13.75C40 11.682 38.2203 10 36.0312 10ZM32.5 26.25C31.1195 26.25 30 25.1305 30 23.75C30 22.3695 31.1195 21.25 32.5 21.25C33.8805 21.25 35 22.3695 35 23.75C35 25.1305 33.8805 26.25 32.5 26.25Z"
        fill="#2596A1"
    />
</svg>
