<svg width="120" height="40" viewBox="0 0 120 40" fill="none" xmlns="http://www.w3.org/2000/svg">
    <path
        d="M1.01198 34.3222H1.90984L1.06899 37.6108C0.940723 38.094 0.969226 38.4698 1.14025 38.7114C1.31127 38.953 1.62481 39.0739 2.09512 39.0739C2.55117 39.0739 2.93597 38.953 3.23526 38.7114C3.53455 38.4698 3.73407 38.094 3.86234 37.6108L4.70319 34.3222H5.6153L4.7602 37.6913C4.57493 38.4161 4.24714 38.9665 3.76257 39.3289C3.29227 39.6913 2.66519 39.8792 1.89559 39.8792C1.126 39.8792 0.59868 39.7047 0.313644 39.3423C0.0286085 38.9799 -0.0283984 38.4296 0.156875 37.7047L1.01198 34.3222ZM5.48704 39.7316L6.91222 34.1074L9.62006 37.4094C9.69131 37.5034 9.76257 37.5973 9.83383 37.7047C9.90509 37.8121 9.97635 37.9329 10.0619 38.0671L11.0167 34.3222H11.8576L10.4324 39.9329L7.66756 36.5638C7.5963 36.4698 7.52504 36.3759 7.45379 36.2819C7.38253 36.1745 7.32552 36.0806 7.28276 35.9598L6.32789 39.7181H5.48704V39.7316ZM11.7863 39.7316L13.1545 34.3222H14.0666L12.6984 39.7316H11.7863ZM13.9954 39.7316L15.3635 34.3222H18.4847L18.2994 35.0739H16.0904L15.7483 36.4161H17.9573L17.7578 37.1812H15.5488L14.9075 39.7181H13.9954V39.7316ZM18.1284 39.7316L19.4965 34.3222H20.4087L19.0405 39.7316H18.1284ZM20.3374 39.7316L21.7056 34.3222H24.8267L24.6414 35.0739H22.4324L22.0904 36.4296H24.2994L24.0999 37.1947H21.8908L21.449 38.9396H23.6581L23.4585 39.7316H20.3374ZM24.5132 39.7316L25.8813 34.3222H27.107C27.9051 34.3222 28.4609 34.3625 28.7602 34.443C29.0595 34.5235 29.316 34.6443 29.5155 34.8323C29.7721 35.0739 29.9431 35.3826 30.0143 35.745C30.0856 36.1208 30.0571 36.5504 29.9431 37.0202C29.8148 37.5034 29.6296 37.9195 29.373 38.2953C29.1165 38.6712 28.7887 38.9665 28.4039 39.2081C28.1189 39.396 27.8053 39.5168 27.4633 39.5973C27.1355 39.6779 26.6367 39.7181 25.9811 39.7181H25.7388H24.5132V39.7316ZM25.6248 38.9262H26.3944C26.8077 38.9262 27.1355 38.8994 27.3635 38.8457C27.5915 38.792 27.7911 38.698 27.9763 38.5772C28.2329 38.4027 28.4467 38.1879 28.6177 37.9195C28.7887 37.6645 28.917 37.3557 29.0025 37.0067C29.088 36.6578 29.1165 36.3624 29.0737 36.1074C29.031 35.8524 28.9312 35.6242 28.7602 35.4497C28.6319 35.3155 28.4752 35.2349 28.2614 35.1812C28.0476 35.1276 27.7198 35.1007 27.2495 35.1007H26.9217H26.5939L25.6248 38.9262ZM34.1331 37.302L33.5203 39.7316H32.6652L34.0333 34.3222H35.4158C35.8291 34.3222 36.1141 34.349 36.2994 34.3893C36.4847 34.4296 36.6272 34.4967 36.7412 34.6041C36.8837 34.7249 36.9835 34.8994 37.0262 35.1141C37.069 35.3289 37.0547 35.5571 36.9977 35.8121C36.9265 36.0671 36.8267 36.3088 36.6699 36.5235C36.5132 36.7383 36.3279 36.9128 36.1284 37.0336C35.9573 37.1275 35.7721 37.2081 35.5725 37.2484C35.373 37.2886 35.0595 37.3155 34.6604 37.3155H34.4752H34.1331V37.302ZM34.3754 36.5772H34.6034C35.1022 36.5772 35.4585 36.5235 35.6581 36.4161C35.8576 36.3088 35.9858 36.1208 36.0571 35.8524C36.1284 35.5705 36.0856 35.3557 35.9431 35.2484C35.7863 35.1276 35.4728 35.0739 35.0025 35.0739H34.7744L34.3754 36.5772ZM40.0904 39.7316L39.8053 38.3356H37.582L36.5844 39.7316H35.6295L39.7626 34.1074L41.0452 39.7316H40.0904ZM38.1236 37.5973H39.6771L39.4205 36.3624C39.4063 36.2819 39.392 36.188 39.392 36.094C39.3778 35.9866 39.3778 35.8792 39.3778 35.7584C39.3208 35.8792 39.2638 35.9866 39.1925 36.094C39.1355 36.2014 39.0785 36.2953 39.0215 36.3759L38.1236 37.5973ZM42.3564 39.7316L42.9835 37.2618L41.8433 34.3356H42.7982L43.5108 36.1745C43.525 36.2282 43.5393 36.2819 43.5678 36.3624C43.5963 36.443 43.6105 36.5235 43.639 36.6041C43.6961 36.5235 43.7531 36.443 43.8101 36.3624C43.8671 36.2819 43.9241 36.2148 43.9811 36.1477L45.6485 34.3356H46.5607L43.8956 37.2484L43.2685 39.7181H42.3564V39.7316ZM51.0357 37.0604C51.0357 37.0202 51.05 36.8994 51.0785 36.7114C51.0927 36.5504 51.107 36.4296 51.1212 36.3222C51.0642 36.443 51.0072 36.5638 50.936 36.698C50.8647 36.8188 50.7792 36.9531 50.6794 37.0739L48.4847 39.9598L47.7721 37.0202C47.7436 36.8994 47.7151 36.7786 47.7008 36.6712C47.6866 36.5638 47.6723 36.443 47.6723 36.3356C47.6438 36.443 47.601 36.5638 47.5583 36.698C47.5155 36.8188 47.4585 36.953 47.3873 37.0873L46.1046 39.745H45.2638L48.0143 34.1074L48.7982 37.5168C48.8124 37.5705 48.8267 37.6645 48.8409 37.7853C48.8552 37.9061 48.8837 38.0671 48.9122 38.2551C49.012 38.094 49.1402 37.9061 49.3113 37.6645C49.354 37.5973 49.3968 37.5571 49.411 37.5168L51.8908 34.1074L51.8053 39.745H50.9645L51.0357 37.0604ZM52.5464 39.7316L53.9146 34.3222H57.0357L56.8504 35.0739H54.6414L54.2994 36.4296H56.5084L56.3089 37.1947H54.0999L53.658 38.9396H55.8671L55.6675 39.7316H52.5464ZM56.7079 39.7316L58.1331 34.1074L60.8409 37.4094C60.9122 37.5034 60.9835 37.5973 61.0547 37.7047C61.126 37.8121 61.1972 37.9329 61.2827 38.0671L62.2376 34.3222H63.0785L61.6533 39.9329L58.8885 36.5638C58.8172 36.4698 58.7459 36.3759 58.6747 36.2819C58.6034 36.1745 58.5464 36.0806 58.5037 35.9598L57.5488 39.7181H56.7079V39.7316ZM65.9858 35.0604L64.8029 39.7181H63.8908L65.0737 35.0604H63.5915L63.7768 34.3088H67.6533L67.468 35.0604H65.9858ZM66.9407 38.6443L67.7531 38.3222C67.7673 38.5638 67.8386 38.7517 67.9953 38.8725C68.1521 38.9933 68.3659 39.0604 68.6509 39.0604C68.9217 39.0604 69.1497 38.9933 69.3493 38.8457C69.5488 38.698 69.677 38.5101 69.7341 38.2685C69.8196 37.9463 69.62 37.6645 69.1355 37.4228C69.0642 37.3826 69.0215 37.3557 68.9787 37.3423C68.4371 37.047 68.0951 36.792 67.9526 36.5504C67.8101 36.3088 67.7816 36.0269 67.8671 35.6913C67.9811 35.2484 68.2234 34.8994 68.6082 34.6175C68.993 34.349 69.4205 34.2014 69.9336 34.2014C70.3469 34.2014 70.6747 34.2819 70.9169 34.4296C71.1592 34.5772 71.2875 34.8054 71.3303 35.0873L70.5322 35.4363C70.4609 35.2618 70.3754 35.141 70.2614 35.0604C70.1474 34.9799 70.0048 34.9396 69.8338 34.9396C69.5915 34.9396 69.3778 35.0067 69.2067 35.1276C69.0357 35.2484 68.9217 35.4094 68.8647 35.6242C68.7792 35.9463 69.0215 36.2551 69.5773 36.5369C69.62 36.5638 69.6485 36.5772 69.677 36.5906C70.1616 36.8322 70.4894 37.0739 70.6319 37.3155C70.7744 37.5571 70.8029 37.839 70.7174 38.2014C70.5892 38.7114 70.3184 39.1141 69.9051 39.4228C69.4918 39.7181 69.0072 39.8792 68.4371 39.8792C67.9668 39.8792 67.5963 39.7718 67.3398 39.5571C67.0547 39.3423 66.9265 39.0336 66.9407 38.6443ZM73.6533 39.7316L75.0215 34.3222H75.9336L74.5654 39.7316H73.6533ZM75.8766 39.7316L77.3018 34.1074L80.0096 37.4094C80.0809 37.5034 80.1521 37.5973 80.2234 37.7047C80.2946 37.8121 80.3659 37.9329 80.4514 38.0671L81.4063 34.3222H82.2471L80.8219 39.9329L78.0571 36.5638C77.9858 36.4698 77.9146 36.3759 77.8433 36.2819C77.7721 36.1745 77.7151 36.0806 77.6723 35.9598L76.7174 39.7181H75.8766V39.7316ZM85.1545 35.0604L83.9716 39.7181H83.0595L84.2424 35.0604H82.7602L82.9455 34.3088H86.8219L86.6367 35.0604H85.1545ZM86.1379 39.7316L87.506 34.3222H90.6414L90.4561 35.0739H88.2471L87.9051 36.4296H90.1141L89.9146 37.1947H87.7056L87.2637 38.9396H89.4728L89.2732 39.7316H86.1379ZM91.7673 37.302L91.1545 39.7181H90.2994L91.6675 34.3088H92.9359C93.3065 34.3088 93.5915 34.3356 93.7768 34.3759C93.9763 34.4161 94.1331 34.4967 94.2471 34.6041C94.3896 34.7383 94.4751 34.8994 94.5179 35.1141C94.5607 35.3155 94.5464 35.5437 94.4894 35.7987C94.3754 36.2282 94.1901 36.5772 93.9051 36.8188C93.62 37.0604 93.2637 37.2081 92.8362 37.2618L94.1331 39.7181H93.107L91.8671 37.302H91.7673V37.302ZM91.9953 36.6175H92.1664C92.6509 36.6175 92.9787 36.5638 93.164 36.4564C93.3493 36.349 93.4775 36.1611 93.5488 35.8792C93.62 35.5839 93.5915 35.3692 93.449 35.2484C93.3065 35.1276 93.0072 35.0604 92.5512 35.0604H92.3801L91.9953 36.6175ZM94.6889 39.7316L96.0571 34.3222H99.1782L98.993 35.0739H96.7839L96.4419 36.4161H98.6509L98.4514 37.1812H96.2424L95.601 39.7181H94.6889V39.7316ZM102.214 39.7316L101.929 38.3356H99.7055L98.7079 39.7316H97.7531L101.886 34.1074L103.169 39.7316H102.214ZM100.233 37.5973H101.786L101.53 36.3624C101.516 36.2819 101.501 36.188 101.501 36.094C101.487 35.9866 101.487 35.8792 101.487 35.7584C101.43 35.8792 101.373 35.9866 101.302 36.094C101.245 36.2014 101.188 36.2953 101.131 36.3759L100.233 37.5973ZM109.097 35.6376C108.898 35.4229 108.656 35.2618 108.399 35.1678C108.143 35.0604 107.858 35.0067 107.53 35.0067C106.917 35.0067 106.375 35.1947 105.891 35.5705C105.406 35.9463 105.093 36.443 104.936 37.047C104.793 37.6242 104.85 38.1074 105.135 38.4967C105.406 38.8725 105.834 39.0604 106.404 39.0604C106.732 39.0604 107.059 39.0067 107.387 38.8859C107.715 38.7786 108.043 38.6041 108.385 38.3759L108.128 39.3691C107.843 39.5436 107.544 39.6645 107.23 39.745C106.917 39.8255 106.603 39.8658 106.261 39.8658C105.834 39.8658 105.449 39.7987 105.121 39.6645C104.793 39.5302 104.523 39.3289 104.309 39.0604C104.095 38.8054 103.967 38.4967 103.91 38.1477C103.853 37.7987 103.867 37.4228 103.981 37.0202C104.081 36.6175 104.252 36.2551 104.48 35.9061C104.708 35.5571 105.007 35.2484 105.349 34.9933C105.691 34.7249 106.062 34.5235 106.461 34.3893C106.86 34.2551 107.259 34.188 107.672 34.188C108 34.188 108.299 34.2282 108.584 34.3222C108.855 34.4161 109.112 34.5504 109.34 34.7383L109.097 35.6376ZM109.183 39.7316L110.551 34.3222H113.672L113.487 35.0739H111.278L110.936 36.4296H113.145L112.945 37.1947H110.736L110.295 38.9396H112.504L112.304 39.7316H109.183Z"
        fill="#3D3D3C"
    />
    <path
        d="M92.5938 29.6107H86.3373L95.0309 0.0402832H101.287L92.5938 29.6107ZM89.3444 0.966456C88.9168 0.402698 88.247 0.12082 87.3349 0.12082H52.9596L51.2636 5.91948H57.5202H82.532L80.7078 12.1074H55.6959V12.094H49.4394L44.2517 29.745H50.5083L53.9857 17.906H82.1045C82.9881 17.906 83.8147 17.6242 84.5843 17.0604C85.3539 16.4967 85.867 15.7987 86.1092 14.9665L89.5867 3.12753C89.8575 2.24162 89.7719 1.53021 89.3444 0.966456ZM40.6033 27.7584C40.2612 28.9262 39.1211 29.745 37.8384 29.745H5.58665C4.70303 29.745 4.04745 29.4631 3.6199 28.8993C3.19235 28.3356 3.09258 27.6376 3.34912 26.8054L11.2161 0.12082H17.4726L10.4465 23.9597H35.4726L42.4988 0.12082H48.7553L40.6033 27.7584Z"
        fill="#70706E"
    />
    <path d="M112.09 0.0939941L120 14.9128L103.368 29.7316L112.09 0.0939941Z" fill="#098041" />
    <path d="M106.532 0.0939941L114.442 14.9128L97.7957 29.7316L106.532 0.0939941Z" fill="#E97626" />
</svg>
