<svg width="107" height="48" viewBox="0 0 107 48" fill="none" xmlns="http://www.w3.org/2000/svg">
    <path
        d="M3.672 19.048C3.064 19.048 2.576 18.872 2.208 18.52C1.856 18.152 1.68 17.664 1.68 17.056V6.448C1.68 5.84 1.856 5.36 2.208 5.008C2.576 4.64 3.064 4.456 3.672 4.456H11.616C11.712 4.616 11.8 4.816 11.88 5.056C11.96 5.296 12 5.568 12 5.872C12 6.4 11.88 6.792 11.64 7.048C11.416 7.304 11.096 7.432 10.68 7.432H5.352V10.12H10.92C11.016 10.28 11.104 10.48 11.184 10.72C11.264 10.96 11.304 11.232 11.304 11.536C11.304 12.064 11.192 12.456 10.968 12.712C10.744 12.952 10.424 13.072 10.008 13.072H5.352V16.072H11.712C11.808 16.232 11.896 16.44 11.976 16.696C12.056 16.952 12.096 17.232 12.096 17.536C12.096 18.064 11.976 18.448 11.736 18.688C11.512 18.928 11.2 19.048 10.8 19.048H3.672ZM31.7769 18.976C31.6009 19.024 31.3689 19.064 31.0809 19.096C30.7929 19.144 30.4729 19.168 30.1209 19.168C29.4009 19.168 28.8809 19.056 28.5609 18.832C28.2569 18.592 28.1049 18.136 28.1049 17.464V11.512C28.1049 10.984 27.9609 10.6 27.6729 10.36C27.3849 10.104 26.9929 9.976 26.4969 9.976C26.1769 9.976 25.8729 10.032 25.5849 10.144C25.3129 10.256 25.0649 10.4 24.8409 10.576C24.8569 10.656 24.8649 10.736 24.8649 10.816C24.8809 10.896 24.8889 10.976 24.8889 11.056V18.976C24.7129 19.024 24.4809 19.064 24.1929 19.096C23.9049 19.144 23.5849 19.168 23.2329 19.168C22.5129 19.168 21.9929 19.056 21.6729 18.832C21.3689 18.592 21.2169 18.136 21.2169 17.464V11.512C21.2169 10.984 21.0569 10.6 20.7369 10.36C20.4169 10.104 20.0249 9.976 19.5609 9.976C19.2249 9.976 18.9209 10.032 18.6489 10.144C18.3769 10.24 18.1529 10.336 17.9769 10.432V18.976C17.8169 19.024 17.5929 19.064 17.3049 19.096C17.0169 19.144 16.6969 19.168 16.3449 19.168C15.6249 19.168 15.1049 19.056 14.7849 18.832C14.4649 18.592 14.3049 18.136 14.3049 17.464V10.048C14.3049 9.632 14.3929 9.296 14.5689 9.04C14.7449 8.784 14.9929 8.544 15.3129 8.32C15.8409 7.952 16.4889 7.656 17.2569 7.432C18.0409 7.208 18.8569 7.096 19.7049 7.096C20.3769 7.096 21.0089 7.192 21.6009 7.384C22.2089 7.56 22.7609 7.84 23.2569 8.224C23.7369 7.904 24.2809 7.64 24.8889 7.432C25.4969 7.208 26.2169 7.096 27.0489 7.096C27.6729 7.096 28.2649 7.176 28.8249 7.336C29.4009 7.48 29.9049 7.728 30.3369 8.08C30.7689 8.416 31.1129 8.864 31.3689 9.424C31.6409 9.968 31.7769 10.632 31.7769 11.416V18.976ZM40.2686 19.36C39.8526 19.36 39.4686 19.32 39.1166 19.24C38.7646 19.176 38.4446 19.088 38.1566 18.976V23.272C37.9966 23.32 37.7726 23.368 37.4846 23.416C37.1966 23.464 36.8766 23.488 36.5246 23.488C35.8046 23.488 35.2846 23.368 34.9646 23.128C34.6446 22.888 34.4846 22.432 34.4846 21.76V9.88C34.4846 9.464 34.5726 9.128 34.7486 8.872C34.9246 8.6 35.1726 8.36 35.4926 8.152C35.9726 7.848 36.5886 7.6 37.3406 7.408C38.0926 7.2 38.9246 7.096 39.8366 7.096C40.7646 7.096 41.6126 7.216 42.3806 7.456C43.1646 7.68 43.8366 8.04 44.3966 8.536C44.9566 9.032 45.3886 9.664 45.6926 10.432C46.0126 11.2 46.1726 12.112 46.1726 13.168C46.1726 14.176 46.0206 15.072 45.7166 15.856C45.4286 16.624 45.0206 17.272 44.4926 17.8C43.9646 18.312 43.3406 18.704 42.6206 18.976C41.9006 19.232 41.1166 19.36 40.2686 19.36ZM39.7166 16.456C40.5806 16.456 41.2446 16.184 41.7086 15.64C42.1886 15.096 42.4286 14.272 42.4286 13.168C42.4286 12.032 42.1966 11.216 41.7326 10.72C41.2846 10.224 40.6526 9.976 39.8366 9.976C39.4686 9.976 39.1486 10.024 38.8766 10.12C38.6046 10.2 38.3566 10.296 38.1326 10.408V16.048C38.3566 16.176 38.5966 16.28 38.8526 16.36C39.1086 16.424 39.3966 16.456 39.7166 16.456ZM53.2065 16.672C53.5585 16.672 53.9025 16.64 54.2385 16.576C54.5905 16.496 54.8545 16.4 55.0305 16.288V14.08L53.0625 14.248C52.5505 14.296 52.1345 14.416 51.8145 14.608C51.5105 14.784 51.3585 15.056 51.3585 15.424C51.3585 15.808 51.5025 16.112 51.7905 16.336C52.0785 16.56 52.5505 16.672 53.2065 16.672ZM53.0625 7.096C53.8945 7.096 54.6465 7.184 55.3185 7.36C56.0065 7.52 56.5905 7.776 57.0705 8.128C57.5505 8.48 57.9185 8.928 58.1745 9.472C58.4465 10.016 58.5825 10.656 58.5825 11.392V16.816C58.5825 17.232 58.4705 17.568 58.2465 17.824C58.0385 18.064 57.7825 18.272 57.4785 18.448C56.9825 18.752 56.3745 18.984 55.6545 19.144C54.9345 19.304 54.1185 19.384 53.2065 19.384C51.5585 19.384 50.2465 19.072 49.2705 18.448C48.2945 17.808 47.8065 16.84 47.8065 15.544C47.8065 14.44 48.1345 13.6 48.7905 13.024C49.4465 12.448 50.4545 12.088 51.8145 11.944L55.0065 11.608V11.344C55.0065 10.832 54.7985 10.456 54.3825 10.216C53.9665 9.976 53.3665 9.856 52.5825 9.856C51.9745 9.856 51.3745 9.928 50.7825 10.072C50.2065 10.216 49.6865 10.384 49.2225 10.576C49.0305 10.448 48.8625 10.256 48.7185 10C48.5905 9.728 48.5265 9.44 48.5265 9.136C48.5265 8.432 48.8945 7.928 49.6305 7.624C50.0945 7.448 50.6305 7.32 51.2385 7.24C51.8625 7.144 52.4705 7.096 53.0625 7.096ZM62.889 16.12C62.521 15.32 62.097 14.28 61.617 13C61.153 11.704 60.665 10.032 60.153 7.984C60.345 7.776 60.609 7.6 60.945 7.456C61.297 7.296 61.673 7.216 62.073 7.216C62.585 7.216 63.001 7.328 63.321 7.552C63.641 7.76 63.889 8.152 64.065 8.728C64.417 9.896 64.769 11.048 65.121 12.184C65.489 13.32 65.857 14.464 66.225 15.616H66.321C66.513 15.072 66.713 14.48 66.921 13.84C67.129 13.184 67.329 12.512 67.521 11.824C67.713 11.12 67.889 10.416 68.049 9.712C68.225 8.992 68.377 8.296 68.505 7.624C69.001 7.352 69.521 7.216 70.065 7.216C70.577 7.216 71.017 7.328 71.385 7.552C71.753 7.776 71.937 8.144 71.937 8.656C71.937 9.232 71.833 9.968 71.625 10.864C71.433 11.744 71.169 12.672 70.833 13.648C70.513 14.608 70.145 15.568 69.729 16.528C69.329 17.472 68.913 18.304 68.481 19.024C67.585 20.544 66.777 21.672 66.057 22.408C65.337 23.16 64.609 23.536 63.873 23.536C63.281 23.536 62.793 23.352 62.409 22.984C62.025 22.632 61.793 22.176 61.713 21.616C62.225 21.168 62.753 20.64 63.297 20.032C63.857 19.44 64.329 18.84 64.713 18.232C64.441 18.152 64.153 17.976 63.849 17.704C63.561 17.416 63.241 16.888 62.889 16.12ZM77.4144 18.976C77.2544 19.024 77.0304 19.064 76.7424 19.096C76.4544 19.144 76.1344 19.168 75.7824 19.168C75.0624 19.168 74.5424 19.056 74.2224 18.832C73.9024 18.592 73.7424 18.136 73.7424 17.464V10.144C73.7424 9.696 73.8544 9.312 74.0784 8.992C74.3024 8.672 74.6144 8.392 75.0144 8.152C75.5424 7.832 76.1744 7.584 76.9104 7.408C77.6624 7.216 78.4464 7.12 79.2624 7.12C80.9264 7.12 81.7584 7.68 81.7584 8.8C81.7584 9.072 81.7184 9.32 81.6384 9.544C81.5584 9.768 81.4704 9.96 81.3744 10.12C81.0064 10.04 80.5584 10 80.0304 10C79.5664 10 79.1024 10.056 78.6384 10.168C78.1744 10.28 77.7664 10.432 77.4144 10.624V18.976ZM86.1906 14.752C86.4146 15.424 86.8066 15.904 87.3666 16.192C87.9266 16.464 88.5746 16.6 89.3106 16.6C89.9826 16.6 90.6146 16.512 91.2066 16.336C91.7986 16.144 92.2786 15.936 92.6466 15.712C92.8866 15.872 93.0866 16.08 93.2466 16.336C93.4066 16.592 93.4866 16.872 93.4866 17.176C93.4866 17.544 93.3746 17.864 93.1506 18.136C92.9266 18.408 92.6146 18.64 92.2146 18.832C91.8306 19.008 91.3666 19.136 90.8226 19.216C90.2946 19.312 89.7106 19.36 89.0706 19.36C88.1266 19.36 87.2546 19.232 86.4546 18.976C85.6546 18.704 84.9666 18.312 84.3906 17.8C83.8146 17.272 83.3586 16.616 83.0226 15.832C82.7026 15.048 82.5426 14.128 82.5426 13.072C82.5426 12.048 82.7026 11.16 83.0226 10.408C83.3586 9.656 83.7986 9.032 84.3426 8.536C84.9026 8.04 85.5346 7.68 86.2386 7.456C86.9586 7.216 87.6946 7.096 88.4466 7.096C89.2626 7.096 90.0066 7.224 90.6786 7.48C91.3666 7.72 91.9506 8.064 92.4306 8.512C92.9266 8.96 93.3106 9.496 93.5826 10.12C93.8546 10.744 93.9906 11.424 93.9906 12.16C93.9906 12.672 93.8546 13.056 93.5826 13.312C93.3106 13.568 92.9266 13.736 92.4306 13.816L86.1906 14.752ZM88.4706 9.808C87.7826 9.808 87.2066 10.024 86.7426 10.456C86.2946 10.872 86.0306 11.48 85.9506 12.28L90.5346 11.536C90.5026 11.12 90.3186 10.728 89.9826 10.36C89.6466 9.992 89.1426 9.808 88.4706 9.808Z"
        fill="white"
    />
</svg>
