<svg width="80" height="32" viewBox="0 0 80 32" fill="none" xmlns="http://www.w3.org/2000/svg">
    <g clip-path="url(#clip0_2_12252)">
        <path
            d="M0 20.8177C0 21.2794 0.249228 21.7009 0.645482 21.906L19.7966 31.8163C20.9082 32.3913 22.2109 31.5475 22.2127 30.2523L22.2216 23.6975C22.2225 23.0326 21.8621 22.4239 21.291 22.1289L9.2017 16.092L0 20.8177Z"
            fill="#F8F8F8"
        />
        <path
            d="M22.2535 1.75294L22.2445 8.30766C22.2436 8.97259 21.8806 9.5804 21.3095 9.87353L9.41379 15.9834L9.20132 16.093L6.27782 14.6329L0.0130615 11.4862V11.4516C0.013958 10.7866 0.376145 10.1798 0.948114 9.8857L19.8419 0.181454C20.9545 -0.389825 22.2553 0.457728 22.2535 1.75294Z"
            fill="#F8F8F8"
            fill-opacity="0.59"
        />
        <path
            d="M9.2017 16.0911L0 20.8177L0.0134475 11.4768L6.27821 14.6235L9.2017 16.0911Z"
            fill="#F8F8F8"
            fill-opacity="0.75"
        />
        <path
            d="M26.8185 10.8431V10.5695L29.7733 10.5744L31.1567 14.6414L32.1311 17.5706L33.0934 14.6446L34.4889 10.5825L37.4436 10.5874V10.8609L33.2799 21.7411L30.9522 21.7379L26.82 10.8447L26.8185 10.8431Z"
            fill="#F8F8F8"
        />
        <path
            d="M40.2375 21.2249C39.4421 20.7183 38.8271 20.0224 38.391 19.1372C37.9549 18.2519 37.7384 17.2615 37.7399 16.1675C37.7414 15.0443 37.9684 14.041 38.4196 13.1573C38.8707 12.2737 39.4947 11.5875 40.2902 11.0971C41.0856 10.6068 41.9803 10.3624 42.9713 10.364C44.275 10.3656 45.3967 10.8172 46.335 11.717L46.4343 10.6003L48.8598 10.6035L48.8447 21.7638L46.4193 21.7606L46.323 20.6439C45.8659 21.0792 45.3501 21.411 44.7757 21.6424C44.2013 21.8739 43.5953 21.9871 42.9562 21.9871C41.9382 21.9855 41.033 21.7314 40.2375 21.2249V21.2249ZM41.3473 18.3215C41.8615 18.8847 42.5232 19.1663 43.3321 19.1663C44.1411 19.1663 44.7832 18.888 45.299 18.3264C45.8148 17.7664 46.0734 17.0511 46.0749 16.1804C46.0764 15.3098 45.8193 14.5944 45.305 14.0312C44.7907 13.4697 44.1351 13.1865 43.3397 13.1865C42.5307 13.1865 41.869 13.4648 41.3533 14.0248C40.8375 14.5863 40.5789 15.3017 40.5774 16.1707C40.5759 17.0398 40.833 17.7583 41.3473 18.3199V18.3215Z"
            fill="#F8F8F8"
        />
        <path
            d="M51.4432 7.02856L54.2416 7.03342L54.2205 21.7735L51.4221 21.7687L51.4432 7.02856V7.02856Z"
            fill="#F8F8F8"
        />
        <path
            d="M57.0294 6.55438C57.3497 6.21776 57.7572 6.04945 58.2534 6.05107C58.7361 6.05107 59.1361 6.221 59.4564 6.55762C59.7752 6.89586 59.9346 7.31663 59.9346 7.82156C59.9346 8.32649 59.7737 8.74403 59.4534 9.07418C59.1331 9.40433 58.7316 9.56778 58.2489 9.56778C57.7662 9.56778 57.3452 9.40109 57.0264 9.07094C56.7076 8.7408 56.5482 8.32326 56.5482 7.81671C56.5482 7.31016 56.7091 6.891 57.0294 6.55438V6.55438ZM56.8384 10.6181L59.6368 10.623L59.6218 21.7832L56.8234 21.7784L56.8384 10.6181Z"
            fill="#F8F8F8"
        />
        <path
            d="M63.9193 20.9999C63.2682 20.3461 62.9434 19.3589 62.945 18.0399L62.951 13.1962L61.1119 13.1929L61.1149 10.6246L62.954 10.6278L62.957 8.24881L65.7554 7.93808L65.7524 10.6327L68.256 10.6359L68.253 13.2043L65.7494 13.201L65.7433 17.7066C65.7433 18.2827 65.8757 18.6938 66.1433 18.9397C66.4095 19.1857 66.8245 19.3087 67.3854 19.3104C67.7373 19.3104 68.0696 19.2828 68.3838 19.2278L68.3808 21.7962C67.7944 21.9224 67.232 21.9839 66.6982 21.9823C65.4982 21.9807 64.572 21.6521 63.9209 20.9983L63.9193 20.9999Z"
            fill="#F8F8F8"
        />
        <path
            d="M71.3912 24.939L73.1385 20.7086L69.3567 10.9321V10.6375L72.331 10.6424L73.7144 14.3711L74.6497 17.1935L75.6316 14.3937L77.0451 10.6472L79.9999 10.6521V10.9466L74.4031 25.2142L71.3897 25.2093V24.9358L71.3912 24.939Z"
            fill="#F8F8F8"
        />
    </g>
    <defs>
        <clipPath id="clip0_2_12252">
            <rect width="80" height="32" fill="white" />
        </clipPath>
    </defs>
</svg>
